<?xml version="1.0" standalone="no"?>
<!DOCTYPE svg PUBLIC "-//W3C//DTD SVG 20010904//EN"
 "http://www.w3.org/TR/2001/REC-SVG-20010904/DTD/svg10.dtd">
<svg version="1.0" xmlns="http://www.w3.org/2000/svg"
 width="500.000000pt" height="500.000000pt" viewBox="0 0 500.000000 500.000000"
 preserveAspectRatio="xMidYMid meet">

<g transform="translate(0.000000,500.000000) scale(0.100000,-0.100000)"
fill="#000000" stroke="none">
<path d="M2550 4395 c-227 -62 -361 -135 -502 -272 -62 -60 -66 -59 -42 13 8
25 12 49 9 52 -4 4 -104 -92 -224 -213 -236 -240 -305 -329 -371 -484 -57
-130 -80 -253 -80 -418 1 -213 21 -312 96 -470 31 -65 39 -73 69 -79 41 -7 56
-24 85 -92 21 -49 31 -59 140 -131 65 -44 127 -82 139 -86 26 -8 26 -8 2 -75
-10 -30 -22 -79 -26 -107 l-7 -53 -29 15 c-15 8 -45 19 -66 23 -36 7 -40 12
-74 92 -20 47 -55 139 -78 205 -44 128 -64 155 -114 155 -55 0 -549 -211 -598
-256 -15 -14 -15 -20 -4 -62 45 -160 186 -508 217 -535 18 -15 20 -26 16 -88
-2 -48 -8 -73 -18 -79 -29 -16 -295 -220 -337 -257 l-43 -38 14 -88 c7 -48 16
-90 18 -93 3 -3 35 1 72 7 36 7 69 10 72 6 3 -3 19 -95 34 -204 30 -216 49
-324 59 -335 3 -3 40 0 81 8 136 25 124 16 115 87 -13 110 -13 110 21 119 18
4 55 28 82 53 62 56 66 52 76 -85 4 -52 10 -98 14 -102 6 -6 210 28 219 36 1
1 -4 42 -12 91 -18 107 -19 183 -4 222 8 22 12 25 19 13 11 -20 37 -150 45
-226 11 -90 10 -90 97 -74 40 7 91 19 113 27 22 8 56 17 75 19 50 7 243 42
320 59 36 7 112 21 170 29 123 19 205 32 240 40 14 3 97 17 185 31 202 33 232
41 245 65 11 21 45 27 55 10 10 -15 116 -12 171 6 27 8 83 17 124 19 41 2 113
8 160 14 90 11 364 44 514 62 101 12 132 24 170 70 47 56 60 96 60 199 1 103
-10 146 -55 222 -15 26 -25 49 -21 52 4 2 43 9 86 15 44 6 81 13 83 15 7 7
-20 162 -31 173 -6 6 -83 43 -171 81 -88 39 -185 82 -216 96 l-57 26 -7 85
c-4 47 -4 102 -1 122 3 21 2 54 -2 73 -6 29 -14 37 -47 48 -61 21 -156 7 -277
-40 -15 -5 -30 -19 -34 -30 -5 -18 -8 -17 -25 11 -29 48 -75 71 -141 71 -62 0
-92 -10 -154 -51 l-40 -27 -27 61 c-15 34 -37 75 -50 91 l-23 28 107 107 c114
114 157 178 207 307 48 123 57 177 56 324 0 105 -5 154 -22 220 -21 80 -53
170 -77 215 -84 162 -187 287 -311 380 -97 73 -145 100 -262 145 l-95 37 67
34 c36 18 66 36 66 40 0 11 -60 19 -144 19 -71 0 -217 -25 -270 -46 -37 -14 5
39 125 159 134 133 134 135 -21 92z m-121 -142 c-25 -27 -55 -65 -68 -85 -27
-46 -38 -50 -16 -7 9 17 14 33 11 36 -3 3 -26 -7 -51 -22 -26 -15 -49 -24 -52
-21 -4 3 -4 7 -2 9 2 2 27 21 54 44 48 39 140 93 159 93 5 0 -11 -21 -35 -47z
m216 -145 c-11 -7 -43 -15 -71 -19 -27 -4 -70 -16 -95 -27 -112 -50 -142 -62
-147 -57 -10 10 166 85 233 99 88 18 106 19 80 4z m150 -103 c218 -80 420
-260 524 -469 38 -76 74 -176 67 -184 -2 -1 -17 26 -34 61 -52 112 -100 181
-202 290 -136 145 -355 266 -533 292 -53 8 -59 19 -19 34 38 15 115 6 197 -24z
m196 -453 c-9 -17 -62 -66 -172 -158 -26 -22 -70 -58 -98 -82 -78 -66 -61 -27
27 58 65 65 234 200 248 200 3 0 0 -8 -5 -18z m198 -178 c93 -105 127 -287 80
-426 -86 -257 -374 -349 -580 -186 -59 47 -86 99 -95 186 -8 76 9 91 26 22 52
-215 307 -291 462 -136 61 61 83 118 83 216 0 73 -4 93 -27 140 -31 61 -65
101 -120 143 l-38 28 41 54 41 54 48 -30 c27 -16 63 -46 79 -65z m-1301 3 c71
-43 225 -157 219 -163 -7 -7 -50 18 -178 103 -65 43 -121 84 -124 92 -7 17 15
9 83 -32z m-123 -103 l54 -47 -46 -44 c-67 -67 -98 -140 -97 -233 0 -91 29
-154 97 -217 61 -56 100 -75 172 -80 104 -9 194 42 246 140 27 50 33 74 34
123 0 51 3 60 16 57 16 -5 21 -37 20 -126 -1 -45 -28 -112 -66 -162 -33 -42
-128 -91 -207 -106 -151 -27 -335 68 -408 210 -53 106 -50 293 6 404 14 27
110 127 122 127 2 0 27 -21 57 -46z m1256 -4 c26 -14 49 -62 49 -101 0 -43
-80 -123 -133 -133 -100 -19 -168 88 -107 169 37 49 81 75 126 75 25 0 54 -5
65 -10z m-1061 -161 c88 -53 99 -86 49 -144 -25 -28 -38 -35 -69 -35 -72 0
-114 62 -90 135 11 33 43 65 65 65 5 0 26 -10 45 -21z m1156 -73 c9 -37 -11
-92 -53 -147 -47 -62 -101 -89 -175 -89 -49 0 -58 3 -73 26 l-17 27 42 -6 c52
-7 107 12 160 54 31 25 44 45 57 88 20 72 47 94 59 47z m-1318 -169 c13 -30
34 -53 67 -75 49 -32 59 -35 129 -36 22 -1 41 -6 43 -11 6 -19 -37 -55 -65
-55 -48 0 -150 56 -173 95 -12 19 -25 35 -30 35 -19 0 -32 46 -20 69 17 31 28
26 49 -22z m715 -50 c56 -24 99 -69 129 -135 16 -35 27 -66 24 -69 -3 -3 -24
6 -48 19 -24 14 -64 28 -90 32 -27 4 -48 12 -48 18 0 19 -61 -1 -114 -36 l-51
-34 -3 28 c-6 57 22 123 67 158 47 35 82 40 134 19z m747 -46 c-7 -28 -29 -77
-50 -110 -27 -41 -35 -62 -28 -69 15 -15 -26 -67 -101 -128 -132 -106 -254
-163 -452 -210 -100 -23 -135 -27 -284 -27 -143 0 -182 3 -247 21 -145 40
-311 137 -413 241 -41 43 -47 53 -35 62 13 8 12 9 -3 7 -14 -2 -22 8 -33 37
-7 22 -14 48 -14 58 0 16 5 15 38 -11 102 -81 235 -128 330 -119 69 7 169 54
225 106 l45 42 -1 -75 c-1 -42 3 -80 9 -86 7 -7 33 5 84 41 40 28 70 47 66 41
-9 -16 53 -23 98 -11 l41 11 -30 13 c-17 7 -25 14 -20 14 19 1 110 -27 155
-48 69 -32 73 -29 67 32 -3 28 -9 63 -13 75 l-7 24 33 -17 c70 -36 144 -55
215 -55 98 0 176 38 265 130 36 37 67 66 69 64 2 -1 -2 -26 -9 -53z m-1122 20
c10 -6 10 -10 -2 -21 -19 -15 -46 -6 -46 15 0 16 27 20 48 6z m331 -175 c-2
-2 -17 -6 -34 -10 -22 -5 -26 -4 -15 4 14 9 59 15 49 6z m-946 -213 c8 -16 20
-46 27 -68 7 -22 35 -100 62 -172 27 -73 46 -137 43 -143 -3 -5 -14 -10 -24
-10 -14 0 -26 21 -49 93 -18 50 -51 141 -76 202 -24 60 -42 113 -40 117 11 18
44 6 57 -19z m-46 -123 c25 -63 59 -154 75 -201 l30 -86 -26 -26 c-14 -14 -28
-38 -32 -54 -3 -15 -25 -47 -48 -71 -36 -37 -41 -48 -40 -86 1 -41 -1 -44 -33
-54 -28 -9 -32 -8 -23 3 18 21 14 113 -8 190 -26 92 -31 102 -49 110 -23 8
-137 -32 -159 -56 -19 -22 -43 -142 -43 -226 -1 -52 -16 -71 -28 -35 -3 9 -38
103 -79 207 -40 105 -79 212 -87 239 l-15 48 102 49 c179 85 380 169 399 167
14 -2 31 -34 64 -118z m1622 1 c23 -32 45 -85 33 -77 -5 3 -22 28 -40 55 -33
54 -28 71 7 22z m-349 -76 c-19 -14 -39 -25 -44 -25 -21 -1 -101 -68 -119 -99
l-19 -32 39 -38 c45 -44 168 -99 260 -114 41 -7 63 -16 63 -25 0 -43 -80 -141
-140 -172 -19 -10 -105 -30 -191 -44 -166 -28 -208 -27 -283 10 -30 16 -126
102 -126 114 0 3 22 14 49 24 27 10 70 32 94 49 66 48 177 174 177 203 0 14
-97 65 -170 90 l-55 19 120 7 c66 4 174 19 240 32 66 13 124 24 129 25 6 1 -5
-10 -24 -24z m714 -5 c26 -12 48 -33 61 -57 11 -21 29 -39 40 -41 39 -8 47
-23 43 -83 -14 -188 -249 -383 -350 -289 -26 24 -38 73 -32 133 3 37 2 46 -5
32 -5 -11 -10 -32 -10 -47 -1 -35 -11 -59 -22 -52 -31 19 28 216 93 314 l23
35 -27 -20 c-14 -11 -24 -23 -21 -27 2 -5 -1 -8 -7 -8 -6 0 -9 -4 -5 -9 3 -5
1 -12 -4 -15 -23 -14 -20 17 4 48 38 50 106 91 174 105 3 1 23 -8 45 -19z
m-464 0 c0 -5 -10 -12 -22 -15 -119 -26 -210 -51 -246 -66 -24 -11 -49 -19
-55 -19 -20 0 59 49 115 71 77 31 208 49 208 29z m890 -14 c0 -28 -11 -33 -82
-41 -29 -4 -75 -11 -102 -17 -50 -11 -65 -4 -66 30 0 25 88 50 183 51 64 1 67
0 67 -23z m-1516 -104 c27 -12 47 -25 44 -27 -3 -3 -36 2 -74 11 -46 11 -98
15 -156 12 -69 -3 -85 -1 -77 8 15 18 44 23 134 20 57 -2 94 -9 129 -24z
m1521 16 c2 -7 8 -78 14 -158 8 -113 8 -147 -2 -156 -16 -15 -96 -34 -141 -34
-35 0 -35 1 -56 68 -12 38 -24 108 -27 163 l-6 96 59 11 c55 11 94 17 137 21
10 0 19 -5 22 -11z m-2100 -157 c62 -36 148 -119 141 -137 -3 -8 0 -13 6 -11
6 1 15 -9 19 -23 13 -44 24 -164 18 -200 -6 -36 -8 -34 -27 25 -10 29 -10 28
-11 -17 -1 -66 -7 -76 -64 -105 -44 -22 -55 -24 -87 -14 -34 10 -150 87 -194
128 -23 22 -96 170 -96 195 0 11 13 27 30 36 21 12 32 27 36 52 4 19 20 50 37
68 28 29 37 32 86 32 43 0 67 -7 106 -29z m-486 -53 c-1 -31 -1 -32 -9 -8 -5
14 -8 -82 -9 -221 l-1 -247 -71 -7 c-38 -4 -73 -5 -76 -1 -7 6 14 447 22 468
6 16 84 45 123 47 19 1 22 -4 21 -31z m2363 -106 c10 -31 18 -60 18 -64 0 -5
-17 -8 -37 -8 -21 -1 -57 -5 -80 -9 -39 -8 -57 -1 -34 13 5 3 26 32 47 63 38
59 54 76 63 67 3 -3 13 -30 23 -62z m467 -9 c3 -5 26 -15 51 -25 94 -34 160
-63 160 -70 0 -5 -14 -8 -30 -8 -17 0 -117 -11 -223 -25 -105 -14 -230 -30
-277 -35 -47 -6 -121 -17 -165 -25 -44 -8 -129 -22 -190 -30 -60 -9 -166 -25
-235 -36 -69 -10 -169 -26 -223 -34 -54 -8 -102 -17 -106 -20 -5 -2 -51 -9
-102 -15 -52 -5 -128 -17 -169 -25 -125 -25 -236 -43 -490 -81 -101 -15 -237
-38 -405 -69 -44 -8 -129 -22 -190 -30 -60 -8 -157 -24 -215 -35 -96 -18 -185
-32 -460 -74 -52 -8 -97 -13 -99 -10 -3 2 4 11 15 18 10 8 41 32 68 54 55 46
123 63 326 83 63 6 144 17 180 25 36 8 107 22 159 31 87 15 97 15 140 -1 25
-9 64 -16 87 -16 65 0 134 12 128 22 -3 5 9 8 28 6 34 -2 91 27 156 79 l32 26
0 -34 c0 -19 4 -39 8 -45 5 -8 101 4 332 42 179 29 393 63 475 74 194 29 199
30 203 64 3 23 7 27 25 22 12 -3 28 -6 35 -6 7 0 10 -4 7 -10 -8 -13 0 -13 87
1 80 12 147 38 196 76 37 28 158 55 297 67 44 4 106 12 139 19 64 13 76 27 76
92 l0 34 82 -34 c45 -19 84 -38 87 -42z m-2816 -183 c2 -91 1 -156 -3 -145 -8
19 -14 323 -6 314 2 -2 6 -78 9 -169z m1672 46 c17 -13 28 -26 25 -29 -11 -11
-90 -18 -90 -9 0 6 -7 18 -17 27 -14 14 -14 18 -2 26 24 15 53 10 84 -15z
m-1517 -11 c7 -14 12 -28 12 -30 0 -7 -74 -25 -102 -25 -25 0 -28 4 -28 34 0
38 8 43 71 45 29 1 38 -4 47 -24z m1405 11 c4 -11 -3 -16 -26 -19 -27 -3 -25
-4 11 -5 49 -2 58 -22 10 -22 -18 0 -44 -3 -57 -7 -21 -5 -23 -3 -19 15 4 13
1 22 -5 22 -28 0 26 21 74 29 4 1 9 -5 12 -13z m-143 -32 l-35 -14 38 5 c37 6
51 -7 21 -19 -28 -11 -52 -6 -58 10 -11 29 -6 34 32 33 l37 -1 -35 -14z m-60
-3 c0 -9 -60 -24 -68 -17 -2 3 -1 9 3 15 7 13 65 15 65 2z m-86 -23 c-9 -32
-8 -31 -69 -38 -62 -7 -76 6 -17 15 55 10 63 16 13 11 -24 -2 -40 -1 -35 4 7
7 73 24 107 29 5 1 5 -9 1 -21z m-134 -13 c0 -11 -11 -15 -37 -15 -40 0 -36
15 7 23 14 2 26 5 28 6 1 0 2 -6 2 -14z m225 5 c4 -6 -10 -10 -37 -9 -40 1
-41 2 -13 9 43 11 43 11 50 0z m328 3 c-7 -2 -21 -2 -30 0 -10 3 -4 5 12 5 17
0 24 -2 18 -5z m-638 -23 c-3 -5 -22 -10 -41 -10 -21 0 -33 4 -29 10 3 6 22
10 41 10 21 0 33 -4 29 -10z m472 4 c-3 -3 -12 -4 -19 -1 -8 3 -5 6 6 6 11 1
17 -2 13 -5z m-583 -22 c-11 -10 -19 -22 -17 -28 3 -10 -66 -28 -74 -20 -2 2
10 17 26 35 20 21 38 31 58 31 28 -1 28 -1 7 -18z m491 11 c-16 -2 -133 -22
-260 -45 -232 -41 -369 -57 -330 -39 11 5 38 10 60 11 22 0 76 7 120 15 44 9
125 23 180 31 55 9 118 20 140 24 22 4 58 7 80 7 31 0 33 -1 10 -4z m-1205
-34 c17 -17 30 -33 28 -34 -2 -1 -48 1 -103 4 -79 5 -100 9 -100 21 0 13 29
22 137 39 3 1 21 -13 38 -30z m895 22 c-6 -4 -26 -11 -45 -15 -32 -5 -34 -5
-16 9 21 16 77 22 61 6z m443 2 c-10 -2 -28 -2 -40 0 -13 2 -5 4 17 4 22 1 32
-1 23 -4z m-533 -12 c-6 -11 -64 -25 -72 -18 -12 13 11 27 43 27 19 0 33 -4
29 -9z m373 -8 c-10 -2 -26 -2 -35 0 -10 3 -2 5 17 5 19 0 27 -2 18 -5z m1428
-9 c34 -16 77 -70 103 -129 7 -16 15 -68 18 -115 4 -75 2 -90 -19 -129 -31
-60 -60 -78 -146 -93 -61 -10 -75 -10 -82 1 -6 11 -45 242 -66 396 -3 22 -8
48 -10 57 -6 20 14 25 104 27 41 1 76 -5 98 -15z m-271 -44 c65 -40 86 -134
47 -208 -12 -24 -22 -48 -22 -54 0 -6 23 -42 50 -80 28 -38 50 -72 50 -77 0
-5 -21 -14 -47 -20 -44 -9 -49 -8 -65 12 -10 12 -18 27 -18 33 0 5 -14 32 -31
58 -23 37 -33 46 -42 37 -8 -8 -8 -28 1 -79 6 -37 8 -70 4 -73 -4 -4 -24 -9
-44 -12 -36 -5 -37 -5 -43 36 -4 23 -15 87 -25 142 -22 112 -50 276 -50 287 0
8 50 14 139 16 48 2 71 -3 96 -18z m-1530 -10 c-16 -4 -43 -8 -60 -8 -24 -1
-26 1 -10 7 11 4 38 8 60 8 38 1 38 0 10 -7z m-891 -11 c-10 -18 -105 -58
-121 -52 -11 4 -8 12 13 34 22 23 36 29 71 29 30 0 42 -4 37 -11z m2115 -66
c50 -116 144 -373 139 -378 -2 -1 -19 -5 -39 -9 -40 -7 -52 2 -63 47 -8 34
-25 41 -71 33 -34 -7 -35 -9 -35 -50 0 -40 -3 -45 -31 -55 -18 -6 -43 -11 -57
-11 -24 0 -24 0 -18 73 4 39 11 101 16 137 5 36 14 113 21 172 12 103 14 107
38 111 66 10 65 11 100 -70z m-1398 49 c-13 -2 -27 0 -32 5 -6 6 3 7 23 4 28
-4 29 -6 9 -9z m72 11 c-7 -2 -21 -2 -30 0 -10 3 -4 5 12 5 17 0 24 -2 18 -5z
m1017 -51 c40 -30 88 -99 102 -145 26 -92 1 -202 -63 -269 -32 -34 -41 -38
-84 -38 -41 0 -52 5 -85 38 -71 70 -110 278 -68 357 20 37 56 71 83 78 33 9
88 -1 115 -21z m-1839 -6 c-13 -16 -51 -28 -51 -17 0 8 38 29 54 30 5 1 3 -5
-3 -13z m-84 -22 c2 -7 -26 -14 -74 -18 -43 -4 -102 -10 -130 -13 -44 -5 -53
-3 -53 10 0 24 249 44 257 21z m1609 -10 c37 -18 77 -73 77 -108 0 -13 -11
-37 -24 -55 -12 -17 -21 -32 -18 -33 2 -2 13 -8 23 -14 86 -47 77 -192 -14
-236 -36 -17 -168 -39 -174 -29 -14 23 -88 451 -80 460 4 4 127 27 157 30 11
0 34 -6 53 -15z m-1916 -57 c-4 -4 -30 -14 -59 -22 -48 -12 -51 -12 -39 2 7 9
31 29 53 45 l40 29 6 -23 c3 -13 3 -27 -1 -31z m1680 -44 c6 -49 18 -117 25
-153 18 -86 34 -179 37 -210 3 -22 -1 -25 -42 -31 -54 -8 -59 -4 -140 131 -30
49 -55 88 -57 87 -1 -2 6 -55 17 -118 11 -63 20 -120 20 -126 0 -9 -15 -13
-44 -13 l-44 0 -11 78 c-6 42 -20 139 -31 214 -26 179 -27 175 12 183 30 7 36
3 75 -39 23 -26 57 -72 74 -103 18 -31 35 -51 37 -45 2 7 -4 56 -13 109 -9 53
-12 99 -8 104 7 6 34 13 69 18 8 0 17 -33 24 -86z m-403 6 c40 -15 71 -47 101
-104 20 -40 27 -68 30 -141 4 -81 2 -95 -21 -140 -34 -67 -58 -86 -116 -92
-70 -6 -110 20 -144 95 -14 32 -29 71 -33 86 -3 15 -9 26 -11 23 -3 -3 7 -55
22 -116 15 -61 26 -112 24 -115 -2 -2 -21 -6 -41 -10 l-37 -7 -15 51 c-8 27
-18 70 -21 95 l-7 46 -45 0 -44 0 7 -47 c4 -27 12 -72 19 -101 7 -29 9 -55 5
-57 -5 -3 -28 -8 -53 -11 l-44 -6 -27 143 c-22 119 -48 330 -43 335 1 1 22 4
47 5 l45 4 7 -84 c4 -46 9 -86 12 -89 3 -3 24 1 46 8 l40 13 -6 87 -7 87 38 7
c20 4 39 5 41 3 3 -2 7 -34 11 -71 3 -36 10 -66 14 -66 5 0 9 11 9 24 0 33 69
134 100 145 34 13 64 13 97 0z m-511 -114 c8 -47 0 -65 -31 -65 -14 0 -28 -6
-31 -14 -3 -7 8 -96 25 -197 17 -101 28 -185 26 -187 -2 -2 -24 -7 -48 -9 -43
-5 -44 -5 -50 28 -3 19 -17 104 -32 189 -14 85 -28 157 -31 160 -3 3 -22 5
-42 5 -33 0 -37 3 -42 30 -5 25 -8 18 -19 -41 -7 -40 -21 -105 -31 -145 -19
-71 -19 -74 1 -168 10 -52 16 -98 12 -102 -5 -5 -28 -9 -53 -11 l-45 -3 -8 78
c-6 65 -15 90 -52 158 -24 44 -56 94 -69 110 -23 27 -70 119 -64 124 2 1 24 5
49 9 54 8 62 1 107 -89 l30 -60 11 40 c5 22 15 63 21 91 l11 51 67 11 c37 7
112 18 167 25 55 8 103 15 107 16 4 0 10 -15 14 -34z m-595 -121 c44 -41 61
-80 61 -136 0 -80 -42 -128 -146 -168 l-29 -11 7 -79 c7 -88 0 -100 -62 -100
-29 0 -29 1 -36 68 -4 37 -11 94 -16 127 -6 33 -17 111 -26 174 -8 63 -16 119
-17 125 -3 15 108 35 176 32 48 -2 62 -7 88 -32z"/>
<path d="M2603 1703 c-18 -7 -16 -20 3 -27 9 -4 13 -2 8 5 -4 6 0 15 7 20 15
9 2 11 -18 2z"/>
<path d="M4063 1753 c9 -2 25 -2 35 0 9 3 1 5 -18 5 -19 0 -27 -2 -17 -5z"/>
<path d="M999 1195 c-3 -2 -38 -9 -79 -16 -83 -13 -144 -32 -70 -22 98 13 225
41 189 42 -20 1 -38 -1 -40 -4z"/>
<path d="M4060 1413 c0 -23 39 -266 43 -270 3 -2 19 3 36 11 87 46 43 266 -53
266 -14 0 -26 -3 -26 -7z"/>
<path d="M3761 1353 c3 -61 14 -88 34 -85 44 6 65 25 65 57 0 41 -16 55 -62
55 -35 0 -38 -2 -37 -27z"/>
<path d="M3518 1274 c-5 -8 -12 -108 -9 -126 0 -4 14 -2 31 3 26 10 29 15 24
37 -10 40 -40 96 -46 86z"/>
<path d="M3154 1275 c-13 -20 -16 -40 -11 -90 5 -69 22 -105 61 -130 63 -42
111 67 71 163 -34 80 -89 106 -121 57z"/>
<path d="M2845 1250 c-3 -5 -1 -28 5 -50 l11 -40 32 13 c55 23 45 87 -14 87
-15 0 -31 -4 -34 -10z"/>
<path d="M2889 1083 c-14 -3 -15 -11 -8 -51 5 -25 13 -50 17 -54 4 -4 23 0 42
10 76 37 33 118 -51 95z"/>
<path d="M2237 1132 c-26 -29 -38 -74 -32 -117 8 -46 48 -120 70 -129 22 -8
62 10 74 33 26 47 -1 201 -39 221 -28 15 -55 12 -73 -8z"/>
<path d="M1077 943 c-11 -3 -16 -11 -13 -26 3 -12 8 -43 11 -69 l6 -47 30 11
c97 34 66 157 -34 131z"/>
<path d="M3703 3093 c-10 -21 -30 -44 -46 -51 -34 -16 -34 -26 -2 -40 14 -7
35 -28 46 -47 24 -40 34 -43 48 -17 6 11 30 34 55 53 25 19 46 37 46 41 0 4
-13 14 -30 23 -16 8 -45 29 -64 46 l-35 30 -18 -38z"/>
<path d="M1705 2203 c4 -10 15 -38 24 -63 9 -25 17 -47 19 -49 6 -10 20 17 26
50 6 34 4 38 -29 58 -44 26 -49 26 -40 4z"/>
</g>
</svg>
